<svg viewBox="0 0 300 300" xmlns="http://www.w3.org/2000/svg">
  <defs>
    <radialGradient id="bg248" cx=".5" cy=".38" r=".7"><stop offset="0" stop-color="#FFEDE4"/><stop offset="1" stop-color="#F6BFA6"/></radialGradient>
    <radialGradient id="f243" cx=".42" cy=".36" r=".72"><stop offset="0" stop-color="#FFE6D5"/><stop offset=".62" stop-color="#F6C6A8"/><stop offset="1" stop-color="#D69674"/></radialGradient>
    <linearGradient id="h244" x1="0" y1="0" x2="0" y2="1"><stop offset="0" stop-color="#D38A52"/><stop offset=".5" stop-color="#9A5530"/><stop offset="1" stop-color="#62331C"/></linearGradient>
    <linearGradient id="c245" x1="0" y1="0" x2="0" y2="1"><stop offset="0" stop-color="#7FA38B"/><stop offset="1" stop-color="#557C63"/></linearGradient>
    <linearGradient id="sh249" x1="0" y1="0" x2="0" y2="1"><stop offset="0" stop-color="#000" stop-opacity=".22"/><stop offset="1" stop-color="#000" stop-opacity="0"/></linearGradient>
    <filter id="b246"><feGaussianBlur stdDeviation="4"/></filter>
    <clipPath id="clip247"><circle cx="150" cy="150" r="150"/></clipPath>
  </defs>
  <g>
  <rect width="300" height="300" fill="url(#bg248)"/>
  <circle cx="150" cy="150" r="118" fill="#fff" opacity=".22"/>
  <path d="M236 66 c12 -14 26 4 13 11 c-12 7 -2 -18 12 -9 c12 9 -7 21 -12 9" stroke="#E08563" stroke-width="3.5" fill="none" stroke-linecap="round"/><g stroke="#E08563" stroke-width="3.5" stroke-linecap="round" opacity=".8"><path d="M58 92 l10 8"/><path d="M50 116 l13 2"/><path d="M62 72 l6 11"/></g>
  <g transform="translate(18 24) scale(.88)">
  <g transform="translate(0 0)">
    <path d="M26 330 C26 272 80 252 150 252 C220 252 274 272 274 330Z" fill="url(#c245)"/>
    <path d="M92 262 Q150 232 208 262 Q196 292 150 294 Q104 292 92 262Z" fill="#557C63"/>
    <path d="M46 290 Q70 266 104 260" stroke="#fff" stroke-opacity=".25" stroke-width="6" fill="none" stroke-linecap="round"/>
    <path d="M134 280 v26 M166 280 v26" stroke="#FFFFFF" stroke-opacity=".8" stroke-width="4" stroke-linecap="round"/><circle cx="134" cy="308" r="4" fill="#fff"/><circle cx="166" cy="308" r="4" fill="#fff"/>
  </g>
  <g transform="translate(0 0) rotate(0 150 250)">
    <path d="M78 132 C74 64 116 38 152 38 C192 38 230 64 224 132 Z" fill="url(#h244)"/>
    <path d="M128 216 h44 v48 q-22 12 -44 0z" fill="#D69674"/>
    <path d="M128 222 h44 v18 q-22 -4 -44 0z" fill="url(#sh249)"/>
    <ellipse cx="82" cy="168" rx="14" ry="20" fill="#F6C6A8"/><ellipse cx="218" cy="168" rx="14" ry="20" fill="#F6C6A8"/>
    <path d="M78 164 q4 -8 10 -2" stroke="#D69674" stroke-width="3" fill="none" stroke-linecap="round"/><path d="M222 164 q-4 -8 -10 -2" stroke="#D69674" stroke-width="3" fill="none" stroke-linecap="round"/>
    <path d="M84 148 C84 92 118 76 150 76 C182 76 216 92 216 148 C216 206 186 240 150 240 C114 240 84 206 84 148Z" fill="url(#f243)"/>
    <ellipse cx="118" cy="108" rx="24" ry="12" fill="#fff" opacity=".25" filter="url(#b246)"/>
    <path d="M74 128 C74 80 112 56 152 56 C192 56 228 80 228 128 Q152 106 74 128Z" fill="#C9A36A"/><path d="M74 128 Q152 106 228 128 L228 146 Q152 124 74 146Z" fill="#B08A52"/><path d="M96 82.08 v36" stroke="#fff" stroke-opacity=".2" stroke-width="3"/><path d="M116 78.48 v36" stroke="#fff" stroke-opacity=".2" stroke-width="3"/><path d="M136 74.88 v36" stroke="#fff" stroke-opacity=".2" stroke-width="3"/><path d="M156 72.72 v36" stroke="#fff" stroke-opacity=".2" stroke-width="3"/><path d="M176 76.32 v36" stroke="#fff" stroke-opacity=".2" stroke-width="3"/><path d="M196 79.92 v36" stroke="#fff" stroke-opacity=".2" stroke-width="3"/><circle cx="152" cy="54" r="12" fill="#B08A52"/><path d="M92 132 q-6 16 4 22 M208 132 q8 14 -2 22" stroke="#9A5530" stroke-width="8" fill="none" stroke-linecap="round"/>
    <defs><radialGradient id="ir250" cx=".45" cy=".35" r=".65"><stop offset="0" stop-color="#C98A4E"/><stop offset=".55" stop-color="#6E3B1A"/><stop offset="1" stop-color="#2E1508"/></radialGradient>
  <clipPath id="ir250c"><ellipse cx="116" cy="162" rx="18" ry="19.8"/></clipPath></defs>
  <ellipse cx="116" cy="162" rx="18" ry="19.8" fill="#FFFDFB"/>
  <g clip-path="url(#ir250c)">
    <ellipse cx="116" cy="147.6" rx="18" ry="8.1" fill="#E6D8E4" opacity=".6"/>
    <circle cx="116" cy="164.16" r="12.959999999999999" fill="url(#ir250)"/>
    <circle cx="116" cy="165.16" r="6.84" fill="#120703"/>
    <circle cx="121.4" cy="158.04" r="3.96" fill="#fff"/>
    <circle cx="111.32" cy="169.56" r="1.8" fill="#fff" opacity=".85"/>
    
    
  </g>
  
  <path d="M96.56 153.9 Q116 135 135.44 153.9" stroke="#241008" stroke-width="4.32" fill="none" stroke-linecap="round"/>
  <path d="M98.9 152.1 l-6.84 -5.040000000000001" stroke="#241008" stroke-width="2.88" stroke-linecap="round"/><defs><radialGradient id="ir251" cx=".45" cy=".35" r=".65"><stop offset="0" stop-color="#C98A4E"/><stop offset=".55" stop-color="#6E3B1A"/><stop offset="1" stop-color="#2E1508"/></radialGradient>
  <clipPath id="ir251c"><ellipse cx="184" cy="162" rx="18" ry="19.8"/></clipPath></defs>
  <ellipse cx="184" cy="162" rx="18" ry="19.8" fill="#FFFDFB"/>
  <g clip-path="url(#ir251c)">
    <ellipse cx="184" cy="147.6" rx="18" ry="8.1" fill="#E6D8E4" opacity=".6"/>
    <circle cx="184" cy="164.16" r="12.959999999999999" fill="url(#ir251)"/>
    <circle cx="184" cy="165.16" r="6.84" fill="#120703"/>
    <circle cx="189.4" cy="158.04" r="3.96" fill="#fff"/>
    <circle cx="179.32" cy="169.56" r="1.8" fill="#fff" opacity=".85"/>
    
    
  </g>
  
  <path d="M164.56 153.9 Q184 135 203.44 153.9" stroke="#241008" stroke-width="4.32" fill="none" stroke-linecap="round"/>
  <path d="M201.1 152.1 l6.84 -5.040000000000001" stroke="#241008" stroke-width="2.88" stroke-linecap="round"/>
    <path d="M94 128 Q112 132 130 142" stroke="#62331C" stroke-width="7.5" fill="none" stroke-linecap="round"/><path d="M206 128 Q188 132 170 142" stroke="#62331C" stroke-width="7.5" fill="none" stroke-linecap="round"/>
    
    <path d="M144 184 q6 10 12 0" stroke="#D69674" stroke-width="4" fill="none" stroke-linecap="round"/><ellipse cx="148" cy="178" rx="3" ry="4" fill="#fff" opacity=".35"/>
    <ellipse cx="102" cy="196" rx="17" ry="10" fill="#FF8FA3" opacity="0.3" filter="url(#b246)"/><ellipse cx="198" cy="196" rx="17" ry="10" fill="#FF8FA3" opacity="0.3" filter="url(#b246)"/>
    <circle cx="98" cy="190" r="2" fill="#D69674"/><circle cx="107" cy="196" r="2" fill="#D69674"/><circle cx="92" cy="198" r="2" fill="#D69674"/><circle cx="202" cy="190" r="2" fill="#D69674"/><circle cx="193" cy="196" r="2" fill="#D69674"/><circle cx="208" cy="198" r="2" fill="#D69674"/>
    <rect x="128" y="204" width="44" height="18" rx="9" fill="#fff" stroke="#9A3F46" stroke-width="4"/><path d="M139 206 v14 M150 206 v14 M161 206 v14 M130 213 h40" stroke="#9A3F46" stroke-opacity=".45" stroke-width="2"/>
    <path d="M218 118 q-9 14 0 20 q9 -6 0 -20z" fill="#9CC8F0" stroke="#6FA6DE" stroke-width="1.2"/>
    
  </g>
  </g>
  </g>
</svg>