<svg viewBox="0 0 300 300" xmlns="http://www.w3.org/2000/svg">
  <defs>
    <radialGradient id="bg214" cx=".5" cy=".38" r=".7"><stop offset="0" stop-color="#FFF6D8"/><stop offset="1" stop-color="#FFD98C"/></radialGradient>
    <radialGradient id="f209" cx=".42" cy=".36" r=".72"><stop offset="0" stop-color="#FFE6D5"/><stop offset=".62" stop-color="#F6C6A8"/><stop offset="1" stop-color="#D69674"/></radialGradient>
    <linearGradient id="h210" x1="0" y1="0" x2="0" y2="1"><stop offset="0" stop-color="#D38A52"/><stop offset=".5" stop-color="#9A5530"/><stop offset="1" stop-color="#62331C"/></linearGradient>
    <linearGradient id="c211" x1="0" y1="0" x2="0" y2="1"><stop offset="0" stop-color="#7FA38B"/><stop offset="1" stop-color="#557C63"/></linearGradient>
    <linearGradient id="sh215" x1="0" y1="0" x2="0" y2="1"><stop offset="0" stop-color="#000" stop-opacity=".22"/><stop offset="1" stop-color="#000" stop-opacity="0"/></linearGradient>
    <filter id="b212"><feGaussianBlur stdDeviation="4"/></filter>
    <clipPath id="clip213"><circle cx="150" cy="150" r="150"/></clipPath>
  </defs>
  <g>
  <rect width="300" height="300" fill="url(#bg214)"/>
  <circle cx="150" cy="150" r="118" fill="#fff" opacity=".22"/>
  <g fill="#F2B84B"><path d="M244 78 l5 12 12 5 -12 5 -5 12 -5 -12 -12 -5 12 -5z"/><path d="M52 104 l3.5 8 8 3.5 -8 3.5 -3.5 8 -3.5 -8 -8 -3.5 8 -3.5z"/><path d="M256 150 l3 6 6 3 -6 3 -3 6 -3 -6 -6 -3 6 -3z" opacity=".7"/></g><path d="M50 60 c-6 -8 -18 -2 -12 8 l12 12 12 -12 c6 -10 -6 -16 -12 -8z" fill="#F08AA0" opacity=".85" transform="translate(4 -6) scale(.8) translate(10 10)"/>
  <g transform="translate(18 24) scale(.88)">
  <g transform="translate(0 0)">
    <path d="M26 330 C26 272 80 252 150 252 C220 252 274 272 274 330Z" fill="url(#c211)"/>
    <path d="M92 262 Q150 232 208 262 Q196 292 150 294 Q104 292 92 262Z" fill="#557C63"/>
    <path d="M46 290 Q70 266 104 260" stroke="#fff" stroke-opacity=".25" stroke-width="6" fill="none" stroke-linecap="round"/>
    <path d="M134 280 v26 M166 280 v26" stroke="#FFFFFF" stroke-opacity=".8" stroke-width="4" stroke-linecap="round"/><circle cx="134" cy="308" r="4" fill="#fff"/><circle cx="166" cy="308" r="4" fill="#fff"/>
  </g>
  <g transform="translate(0 -3) rotate(-5 150 250)">
    <path d="M78 132 C74 64 116 38 152 38 C192 38 230 64 224 132 Z" fill="url(#h210)"/>
    <path d="M128 216 h44 v48 q-22 12 -44 0z" fill="#D69674"/>
    <path d="M128 222 h44 v18 q-22 -4 -44 0z" fill="url(#sh215)"/>
    <ellipse cx="82" cy="168" rx="14" ry="20" fill="#F6C6A8"/><ellipse cx="218" cy="168" rx="14" ry="20" fill="#F6C6A8"/>
    <path d="M78 164 q4 -8 10 -2" stroke="#D69674" stroke-width="3" fill="none" stroke-linecap="round"/><path d="M222 164 q-4 -8 -10 -2" stroke="#D69674" stroke-width="3" fill="none" stroke-linecap="round"/>
    <path d="M84 148 C84 92 118 76 150 76 C182 76 216 92 216 148 C216 206 186 240 150 240 C114 240 84 206 84 148Z" fill="url(#f209)"/>
    <ellipse cx="118" cy="108" rx="24" ry="12" fill="#fff" opacity=".25" filter="url(#b212)"/>
    <path d="M74 128 C74 80 112 56 152 56 C192 56 228 80 228 128 Q152 106 74 128Z" fill="#C9A36A"/><path d="M74 128 Q152 106 228 128 L228 146 Q152 124 74 146Z" fill="#B08A52"/><path d="M96 82.08 v36" stroke="#fff" stroke-opacity=".2" stroke-width="3"/><path d="M116 78.48 v36" stroke="#fff" stroke-opacity=".2" stroke-width="3"/><path d="M136 74.88 v36" stroke="#fff" stroke-opacity=".2" stroke-width="3"/><path d="M156 72.72 v36" stroke="#fff" stroke-opacity=".2" stroke-width="3"/><path d="M176 76.32 v36" stroke="#fff" stroke-opacity=".2" stroke-width="3"/><path d="M196 79.92 v36" stroke="#fff" stroke-opacity=".2" stroke-width="3"/><circle cx="152" cy="54" r="12" fill="#B08A52"/><path d="M92 132 q-6 16 4 22 M208 132 q8 14 -2 22" stroke="#9A5530" stroke-width="8" fill="none" stroke-linecap="round"/>
    <path d="M99 168 Q116 148 133 168" stroke="#241008" stroke-width="6.5" fill="none" stroke-linecap="round"/><path d="M167 168 Q184 148 201 168" stroke="#241008" stroke-width="6.5" fill="none" stroke-linecap="round"/>
    <path d="M94 128 q18 -14 36 -4" stroke="#62331C" stroke-width="7.5" fill="none" stroke-linecap="round"/><path d="M206 128 q-18 -14 -36 -4" stroke="#62331C" stroke-width="7.5" fill="none" stroke-linecap="round"/>
    
    <path d="M144 184 q6 10 12 0" stroke="#D69674" stroke-width="4" fill="none" stroke-linecap="round"/><ellipse cx="148" cy="178" rx="3" ry="4" fill="#fff" opacity=".35"/>
    <ellipse cx="102" cy="196" rx="17" ry="10" fill="#FF8FA3" opacity="0.65" filter="url(#b212)"/><ellipse cx="198" cy="196" rx="17" ry="10" fill="#FF8FA3" opacity="0.65" filter="url(#b212)"/>
    <circle cx="98" cy="190" r="2" fill="#D69674"/><circle cx="107" cy="196" r="2" fill="#D69674"/><circle cx="92" cy="198" r="2" fill="#D69674"/><circle cx="202" cy="190" r="2" fill="#D69674"/><circle cx="193" cy="196" r="2" fill="#D69674"/><circle cx="208" cy="198" r="2" fill="#D69674"/>
    <path d="M122 204 Q150 244 178 204 Q150 212 122 204Z" fill="#7A2E36"/><path d="M128 206 Q150 212 172 206 L170 212 Q150 216 130 212Z" fill="#fff"/><path d="M136 224 Q150 234 164 224 Q150 218 136 224Z" fill="#F0808F"/>
    
    
  </g>
  </g>
  </g>
</svg>