<svg viewBox="0 0 300 300" xmlns="http://www.w3.org/2000/svg">
  <defs>
    <radialGradient id="bg257" cx=".5" cy=".38" r=".7"><stop offset="0" stop-color="#EEEDF2"/><stop offset="1" stop-color="#BFBCCB"/></radialGradient>
    <radialGradient id="f252" cx=".42" cy=".36" r=".72"><stop offset="0" stop-color="#FFE6D5"/><stop offset=".62" stop-color="#F6C6A8"/><stop offset="1" stop-color="#D69674"/></radialGradient>
    <linearGradient id="h253" x1="0" y1="0" x2="0" y2="1"><stop offset="0" stop-color="#D38A52"/><stop offset=".5" stop-color="#9A5530"/><stop offset="1" stop-color="#62331C"/></linearGradient>
    <linearGradient id="c254" x1="0" y1="0" x2="0" y2="1"><stop offset="0" stop-color="#7FA38B"/><stop offset="1" stop-color="#557C63"/></linearGradient>
    <linearGradient id="sh258" x1="0" y1="0" x2="0" y2="1"><stop offset="0" stop-color="#000" stop-opacity=".22"/><stop offset="1" stop-color="#000" stop-opacity="0"/></linearGradient>
    <filter id="b255"><feGaussianBlur stdDeviation="4"/></filter>
    <clipPath id="clip256"><circle cx="150" cy="150" r="150"/></clipPath>
  </defs>
  <g>
  <rect width="300" height="300" fill="url(#bg257)"/>
  <circle cx="150" cy="150" r="118" fill="#fff" opacity=".22"/>
  <path d="M214 72 a17 17 0 0 1 32 -8 a15 15 0 0 1 22 18 h-54 a12 12 0 0 1 0 -10z" fill="#A7A3B6"/><path d="M226 60 a10 10 0 0 1 16 -4" stroke="#fff" stroke-opacity=".4" stroke-width="3" fill="none" stroke-linecap="round"/>
  <g transform="translate(18 24) scale(.88)">
  <g transform="translate(0 7)">
    <path d="M26 330 C26 272 80 252 150 252 C220 252 274 272 274 330Z" fill="url(#c254)"/>
    <path d="M92 262 Q150 232 208 262 Q196 292 150 294 Q104 292 92 262Z" fill="#557C63"/>
    <path d="M46 290 Q70 266 104 260" stroke="#fff" stroke-opacity=".25" stroke-width="6" fill="none" stroke-linecap="round"/>
    <path d="M134 280 v26 M166 280 v26" stroke="#FFFFFF" stroke-opacity=".8" stroke-width="4" stroke-linecap="round"/><circle cx="134" cy="308" r="4" fill="#fff"/><circle cx="166" cy="308" r="4" fill="#fff"/>
  </g>
  <g transform="translate(1 8) rotate(5 150 250)">
    <path d="M78 132 C74 64 116 38 152 38 C192 38 230 64 224 132 Z" fill="url(#h253)"/>
    <path d="M128 216 h44 v48 q-22 12 -44 0z" fill="#D69674"/>
    <path d="M128 222 h44 v18 q-22 -4 -44 0z" fill="url(#sh258)"/>
    <ellipse cx="82" cy="168" rx="14" ry="20" fill="#F6C6A8"/><ellipse cx="218" cy="168" rx="14" ry="20" fill="#F6C6A8"/>
    <path d="M78 164 q4 -8 10 -2" stroke="#D69674" stroke-width="3" fill="none" stroke-linecap="round"/><path d="M222 164 q-4 -8 -10 -2" stroke="#D69674" stroke-width="3" fill="none" stroke-linecap="round"/>
    <path d="M84 148 C84 92 118 76 150 76 C182 76 216 92 216 148 C216 206 186 240 150 240 C114 240 84 206 84 148Z" fill="url(#f252)"/>
    <ellipse cx="118" cy="108" rx="24" ry="12" fill="#fff" opacity=".25" filter="url(#b255)"/>
    <path d="M74 128 C74 80 112 56 152 56 C192 56 228 80 228 128 Q152 106 74 128Z" fill="#C9A36A"/><path d="M74 128 Q152 106 228 128 L228 146 Q152 124 74 146Z" fill="#B08A52"/><path d="M96 82.08 v36" stroke="#fff" stroke-opacity=".2" stroke-width="3"/><path d="M116 78.48 v36" stroke="#fff" stroke-opacity=".2" stroke-width="3"/><path d="M136 74.88 v36" stroke="#fff" stroke-opacity=".2" stroke-width="3"/><path d="M156 72.72 v36" stroke="#fff" stroke-opacity=".2" stroke-width="3"/><path d="M176 76.32 v36" stroke="#fff" stroke-opacity=".2" stroke-width="3"/><path d="M196 79.92 v36" stroke="#fff" stroke-opacity=".2" stroke-width="3"/><circle cx="152" cy="54" r="12" fill="#B08A52"/><path d="M92 132 q-6 16 4 22 M208 132 q8 14 -2 22" stroke="#9A5530" stroke-width="8" fill="none" stroke-linecap="round"/>
    <defs><radialGradient id="ir259" cx=".45" cy=".35" r=".65"><stop offset="0" stop-color="#C98A4E"/><stop offset=".55" stop-color="#6E3B1A"/><stop offset="1" stop-color="#2E1508"/></radialGradient>
  <clipPath id="ir259c"><ellipse cx="116" cy="162" rx="18" ry="19.8"/></clipPath></defs>
  <ellipse cx="116" cy="162" rx="18" ry="19.8" fill="#FFFDFB"/>
  <g clip-path="url(#ir259c)">
    <ellipse cx="116" cy="147.6" rx="18" ry="8.1" fill="#E6D8E4" opacity=".6"/>
    <circle cx="116" cy="168.16" r="12.959999999999999" fill="url(#ir259)"/>
    <circle cx="116" cy="169.16" r="6.84" fill="#120703"/>
    <circle cx="121.4" cy="162.04" r="3.96" fill="#fff"/>
    <circle cx="111.32" cy="173.56" r="1.8" fill="#fff" opacity=".85"/>
    
    <path d="M94.4 153.666 Q116 147.36599999999999 137.6 153.666 L137.6 133.2 L94.4 133.2Z" fill="#F6C6A8"/>
  </g>
  <path d="M96.2 153.666 Q116 147.36599999999999 135.8 153.666" stroke="#241008" stroke-width="3.6" fill="none" stroke-linecap="round"/>
  
  <path d="M98.9 157.032 l-6.84 -5.040000000000001" stroke="#241008" stroke-width="2.88" stroke-linecap="round"/><defs><radialGradient id="ir260" cx=".45" cy=".35" r=".65"><stop offset="0" stop-color="#C98A4E"/><stop offset=".55" stop-color="#6E3B1A"/><stop offset="1" stop-color="#2E1508"/></radialGradient>
  <clipPath id="ir260c"><ellipse cx="184" cy="162" rx="18" ry="19.8"/></clipPath></defs>
  <ellipse cx="184" cy="162" rx="18" ry="19.8" fill="#FFFDFB"/>
  <g clip-path="url(#ir260c)">
    <ellipse cx="184" cy="147.6" rx="18" ry="8.1" fill="#E6D8E4" opacity=".6"/>
    <circle cx="184" cy="168.16" r="12.959999999999999" fill="url(#ir260)"/>
    <circle cx="184" cy="169.16" r="6.84" fill="#120703"/>
    <circle cx="189.4" cy="162.04" r="3.96" fill="#fff"/>
    <circle cx="179.32" cy="173.56" r="1.8" fill="#fff" opacity=".85"/>
    
    <path d="M162.4 153.666 Q184 147.36599999999999 205.6 153.666 L205.6 133.2 L162.4 133.2Z" fill="#F6C6A8"/>
  </g>
  <path d="M164.2 153.666 Q184 147.36599999999999 203.8 153.666" stroke="#241008" stroke-width="3.6" fill="none" stroke-linecap="round"/>
  
  <path d="M201.1 157.032 l6.84 -5.040000000000001" stroke="#241008" stroke-width="2.88" stroke-linecap="round"/>
    <path d="M94 140 q18 -3 34 1" stroke="#62331C" stroke-width="6.5" fill="none" stroke-linecap="round"/><path d="M206 140 q-18 -3 -34 1" stroke="#62331C" stroke-width="6.5" fill="none" stroke-linecap="round"/>
    <path d="M102 184 q14 6 28 0 M170 184 q14 6 28 0" stroke="#D69674" stroke-opacity=".55" stroke-width="3.5" fill="none" stroke-linecap="round"/>
    <path d="M144 184 q6 10 12 0" stroke="#D69674" stroke-width="4" fill="none" stroke-linecap="round"/><ellipse cx="148" cy="178" rx="3" ry="4" fill="#fff" opacity=".35"/>
    <ellipse cx="102" cy="196" rx="17" ry="10" fill="#FF8FA3" opacity="0.12" filter="url(#b255)"/><ellipse cx="198" cy="196" rx="17" ry="10" fill="#FF8FA3" opacity="0.12" filter="url(#b255)"/>
    <circle cx="98" cy="190" r="2" fill="#D69674"/><circle cx="107" cy="196" r="2" fill="#D69674"/><circle cx="92" cy="198" r="2" fill="#D69674"/><circle cx="202" cy="190" r="2" fill="#D69674"/><circle cx="193" cy="196" r="2" fill="#D69674"/><circle cx="208" cy="198" r="2" fill="#D69674"/>
    <path d="M138 218 q12 -4 24 0" stroke="#9A3F46" stroke-width="5" fill="none" stroke-linecap="round"/>
    
    
  </g>
  </g>
  </g>
</svg>