<svg viewBox="0 0 300 300" xmlns="http://www.w3.org/2000/svg">
  <defs>
    <radialGradient id="bg92" cx=".5" cy=".38" r=".7"><stop offset="0" stop-color="#FFEDE4"/><stop offset="1" stop-color="#F6BFA6"/></radialGradient>
    <radialGradient id="f87" cx=".42" cy=".36" r=".72"><stop offset="0" stop-color="#FFE6D5"/><stop offset=".62" stop-color="#F6C6A8"/><stop offset="1" stop-color="#D69674"/></radialGradient>
    <linearGradient id="h88" x1="0" y1="0" x2="0" y2="1"><stop offset="0" stop-color="#A8704A"/><stop offset=".5" stop-color="#6B4028"/><stop offset="1" stop-color="#3F2317"/></linearGradient>
    <linearGradient id="c89" x1="0" y1="0" x2="0" y2="1"><stop offset="0" stop-color="#8FB39A"/><stop offset="1" stop-color="#5E8A6E"/></linearGradient>
    <linearGradient id="sh93" x1="0" y1="0" x2="0" y2="1"><stop offset="0" stop-color="#000" stop-opacity=".22"/><stop offset="1" stop-color="#000" stop-opacity="0"/></linearGradient>
    <filter id="b90"><feGaussianBlur stdDeviation="4"/></filter>
    <clipPath id="clip91"><circle cx="150" cy="150" r="150"/></clipPath>
  </defs>
  <g>
  <rect width="300" height="300" fill="url(#bg92)"/>
  <circle cx="150" cy="150" r="118" fill="#fff" opacity=".22"/>
  <path d="M236 66 c12 -14 26 4 13 11 c-12 7 -2 -18 12 -9 c12 9 -7 21 -12 9" stroke="#E08563" stroke-width="3.5" fill="none" stroke-linecap="round"/><g stroke="#E08563" stroke-width="3.5" stroke-linecap="round" opacity=".8"><path d="M58 92 l10 8"/><path d="M50 116 l13 2"/><path d="M62 72 l6 11"/></g>
  <g transform="translate(18 24) scale(.88)">
  <g transform="translate(0 0)">
    <path d="M26 330 C26 272 80 252 150 252 C220 252 274 272 274 330Z" fill="url(#c89)"/>
    <path d="M92 262 Q150 232 208 262 Q196 292 150 294 Q104 292 92 262Z" fill="#5E8A6E"/>
    <path d="M46 290 Q70 266 104 260" stroke="#fff" stroke-opacity=".25" stroke-width="6" fill="none" stroke-linecap="round"/>
    <path d="M134 280 v26 M166 280 v26" stroke="#FFFFFF" stroke-opacity=".8" stroke-width="4" stroke-linecap="round"/><circle cx="134" cy="308" r="4" fill="#fff"/><circle cx="166" cy="308" r="4" fill="#fff"/>
  </g>
  <g transform="translate(0 0) rotate(0 150 250)">
    <path d="M82 146 C70 76 116 50 152 52 C198 54 232 84 220 146 C206 112 180 98 150 98 C118 98 96 112 82 146Z" fill="url(#h88)"/>
    <path d="M128 216 h44 v48 q-22 12 -44 0z" fill="#D69674"/>
    <path d="M128 222 h44 v18 q-22 -4 -44 0z" fill="url(#sh93)"/>
    <ellipse cx="82" cy="168" rx="14" ry="20" fill="#F6C6A8"/><ellipse cx="218" cy="168" rx="14" ry="20" fill="#F6C6A8"/>
    <path d="M78 164 q4 -8 10 -2" stroke="#D69674" stroke-width="3" fill="none" stroke-linecap="round"/><path d="M222 164 q-4 -8 -10 -2" stroke="#D69674" stroke-width="3" fill="none" stroke-linecap="round"/>
    <path d="M84 148 C84 92 118 76 150 76 C182 76 216 92 216 148 C216 206 186 240 150 240 C114 240 84 206 84 148Z" fill="url(#f87)"/>
    <ellipse cx="118" cy="108" rx="24" ry="12" fill="#fff" opacity=".25" filter="url(#b90)"/>
    <path d="M84 132 C98 96 128 88 152 92 C178 88 206 98 218 132 C200 110 178 106 152 108 C140 108 128 110 120 116 C112 108 98 116 84 132Z" fill="url(#h88)"/><path d="M110 76 q36 -16 76 0" stroke="#fff" stroke-opacity=".25" stroke-width="5" fill="none" stroke-linecap="round"/>
    <defs><radialGradient id="ir94" cx=".45" cy=".35" r=".65"><stop offset="0" stop-color="#C98A4E"/><stop offset=".55" stop-color="#6E3B1A"/><stop offset="1" stop-color="#2E1508"/></radialGradient>
  <clipPath id="ir94c"><ellipse cx="116" cy="162" rx="18" ry="19.8"/></clipPath></defs>
  <ellipse cx="116" cy="162" rx="18" ry="19.8" fill="#FFFDFB"/>
  <g clip-path="url(#ir94c)">
    <ellipse cx="116" cy="147.6" rx="18" ry="8.1" fill="#E6D8E4" opacity=".6"/>
    <circle cx="116" cy="164.16" r="12.959999999999999" fill="url(#ir94)"/>
    <circle cx="116" cy="165.16" r="6.84" fill="#120703"/>
    <circle cx="121.4" cy="158.04" r="3.96" fill="#fff"/>
    <circle cx="111.32" cy="169.56" r="1.8" fill="#fff" opacity=".85"/>
    
    
  </g>
  
  <path d="M96.56 153.9 Q116 135 135.44 153.9" stroke="#241008" stroke-width="4.32" fill="none" stroke-linecap="round"/>
  <path d="M98.9 152.1 l-6.84 -5.040000000000001" stroke="#241008" stroke-width="2.88" stroke-linecap="round"/><defs><radialGradient id="ir95" cx=".45" cy=".35" r=".65"><stop offset="0" stop-color="#C98A4E"/><stop offset=".55" stop-color="#6E3B1A"/><stop offset="1" stop-color="#2E1508"/></radialGradient>
  <clipPath id="ir95c"><ellipse cx="184" cy="162" rx="18" ry="19.8"/></clipPath></defs>
  <ellipse cx="184" cy="162" rx="18" ry="19.8" fill="#FFFDFB"/>
  <g clip-path="url(#ir95c)">
    <ellipse cx="184" cy="147.6" rx="18" ry="8.1" fill="#E6D8E4" opacity=".6"/>
    <circle cx="184" cy="164.16" r="12.959999999999999" fill="url(#ir95)"/>
    <circle cx="184" cy="165.16" r="6.84" fill="#120703"/>
    <circle cx="189.4" cy="158.04" r="3.96" fill="#fff"/>
    <circle cx="179.32" cy="169.56" r="1.8" fill="#fff" opacity=".85"/>
    
    
  </g>
  
  <path d="M164.56 153.9 Q184 135 203.44 153.9" stroke="#241008" stroke-width="4.32" fill="none" stroke-linecap="round"/>
  <path d="M201.1 152.1 l6.84 -5.040000000000001" stroke="#241008" stroke-width="2.88" stroke-linecap="round"/>
    <path d="M94 128 Q112 132 130 142" stroke="#3F2317" stroke-width="7.5" fill="none" stroke-linecap="round"/><path d="M206 128 Q188 132 170 142" stroke="#3F2317" stroke-width="7.5" fill="none" stroke-linecap="round"/>
    
    <path d="M144 184 q6 10 12 0" stroke="#D69674" stroke-width="4" fill="none" stroke-linecap="round"/><ellipse cx="148" cy="178" rx="3" ry="4" fill="#fff" opacity=".35"/>
    <ellipse cx="102" cy="196" rx="17" ry="10" fill="#FF8FA3" opacity="0.3" filter="url(#b90)"/><ellipse cx="198" cy="196" rx="17" ry="10" fill="#FF8FA3" opacity="0.3" filter="url(#b90)"/>
    
    <rect x="128" y="204" width="44" height="18" rx="9" fill="#fff" stroke="#9A3F46" stroke-width="4"/><path d="M139 206 v14 M150 206 v14 M161 206 v14 M130 213 h40" stroke="#9A3F46" stroke-opacity=".45" stroke-width="2"/>
    <path d="M218 118 q-9 14 0 20 q9 -6 0 -20z" fill="#9CC8F0" stroke="#6FA6DE" stroke-width="1.2"/>
    
  </g>
  </g>
  </g>
</svg>