<svg viewBox="0 0 300 300" xmlns="http://www.w3.org/2000/svg">
  <defs>
    <radialGradient id="bg117" cx=".5" cy=".38" r=".7"><stop offset="0" stop-color="#F4EEFD"/><stop offset="1" stop-color="#D6C8F2"/></radialGradient>
    <radialGradient id="f112" cx=".42" cy=".36" r=".72"><stop offset="0" stop-color="#F4C7A2"/><stop offset=".62" stop-color="#D69A6C"/><stop offset="1" stop-color="#A96C43"/></radialGradient>
    <linearGradient id="h113" x1="0" y1="0" x2="0" y2="1"><stop offset="0" stop-color="#7A5038"/><stop offset=".5" stop-color="#3E2418"/><stop offset="1" stop-color="#1F110A"/></linearGradient>
    <linearGradient id="c114" x1="0" y1="0" x2="0" y2="1"><stop offset="0" stop-color="#F2D6C4"/><stop offset="1" stop-color="#D8A98C"/></linearGradient>
    <linearGradient id="sh118" x1="0" y1="0" x2="0" y2="1"><stop offset="0" stop-color="#000" stop-opacity=".22"/><stop offset="1" stop-color="#000" stop-opacity="0"/></linearGradient>
    <filter id="b115"><feGaussianBlur stdDeviation="4"/></filter>
    <clipPath id="clip116"><circle cx="150" cy="150" r="150"/></clipPath>
  </defs>
  <g>
  <rect width="300" height="300" fill="url(#bg117)"/>
  <circle cx="150" cy="150" r="118" fill="#fff" opacity=".22"/>
  <g fill="#9C86CC" opacity=".55"><circle cx="248" cy="96" r="4"/><circle cx="58" cy="118" r="3"/><circle cx="262" cy="128" r="2.5"/></g>
  <g transform="translate(18 24) scale(.88)">
  <g transform="translate(0 0)">
    <path d="M26 330 C26 272 80 252 150 252 C220 252 274 272 274 330Z" fill="url(#c114)"/>
    <path d="M92 262 Q150 232 208 262 Q196 292 150 294 Q104 292 92 262Z" fill="#D8A98C"/>
    <path d="M46 290 Q70 266 104 260" stroke="#fff" stroke-opacity=".25" stroke-width="6" fill="none" stroke-linecap="round"/>
    <path d="M134 280 v26 M166 280 v26" stroke="#FFFFFF" stroke-opacity=".8" stroke-width="4" stroke-linecap="round"/><circle cx="134" cy="308" r="4" fill="#fff"/><circle cx="166" cy="308" r="4" fill="#fff"/>
  </g>
  <g transform="translate(0 0) rotate(0 150 250)">
    <path d="M66 150 C58 70 110 38 150 40 C198 40 244 72 234 160 C238 222 222 266 216 300 L84 300 C76 256 60 216 66 150Z" fill="url(#h113)"/>
    <path d="M128 216 h44 v48 q-22 12 -44 0z" fill="#A96C43"/>
    <path d="M128 222 h44 v18 q-22 -4 -44 0z" fill="url(#sh118)"/>
    <ellipse cx="82" cy="168" rx="14" ry="20" fill="#D69A6C"/><ellipse cx="218" cy="168" rx="14" ry="20" fill="#D69A6C"/>
    <path d="M78 164 q4 -8 10 -2" stroke="#A96C43" stroke-width="3" fill="none" stroke-linecap="round"/><path d="M222 164 q-4 -8 -10 -2" stroke="#A96C43" stroke-width="3" fill="none" stroke-linecap="round"/>
    <path d="M84 148 C84 92 118 76 150 76 C182 76 216 92 216 148 C216 206 186 240 150 240 C114 240 84 206 84 148Z" fill="url(#f112)"/>
    <ellipse cx="118" cy="108" rx="24" ry="12" fill="#fff" opacity=".25" filter="url(#b115)"/>
    <path d="M84 142 C92 96 124 78 158 80 C136 92 126 110 124 128 C112 110 100 118 84 142Z" fill="url(#h113)"/><path d="M216 142 C210 100 188 84 160 80 C186 96 196 116 200 134 Z" fill="url(#h113)"/><path d="M108 92 q30 -18 66 -6" stroke="#fff" stroke-opacity=".28" stroke-width="5" fill="none" stroke-linecap="round"/>
    <defs><radialGradient id="ir119" cx=".45" cy=".35" r=".65"><stop offset="0" stop-color="#C98A4E"/><stop offset=".55" stop-color="#6E3B1A"/><stop offset="1" stop-color="#2E1508"/></radialGradient>
  <clipPath id="ir119c"><ellipse cx="116" cy="162" rx="18" ry="19.8"/></clipPath></defs>
  <ellipse cx="116" cy="162" rx="18" ry="19.8" fill="#FFFDFB"/>
  <g clip-path="url(#ir119c)">
    <ellipse cx="116" cy="147.6" rx="18" ry="8.1" fill="#E6D8E4" opacity=".6"/>
    <circle cx="116" cy="164.16" r="12.959999999999999" fill="url(#ir119)"/>
    <circle cx="116" cy="165.16" r="6.84" fill="#120703"/>
    <circle cx="121.4" cy="158.04" r="3.96" fill="#fff"/>
    <circle cx="111.32" cy="169.56" r="1.8" fill="#fff" opacity=".85"/>
    
    <path d="M94.4 142.974 Q116 136.67399999999998 137.6 142.974 L137.6 133.2 L94.4 133.2Z" fill="#D69A6C"/>
  </g>
  <path d="M96.2 142.974 Q116 136.67399999999998 135.8 142.974" stroke="#241008" stroke-width="3.6" fill="none" stroke-linecap="round"/>
  
  <path d="M98.9 155.448 l-6.84 -5.040000000000001" stroke="#241008" stroke-width="2.88" stroke-linecap="round"/><defs><radialGradient id="ir120" cx=".45" cy=".35" r=".65"><stop offset="0" stop-color="#C98A4E"/><stop offset=".55" stop-color="#6E3B1A"/><stop offset="1" stop-color="#2E1508"/></radialGradient>
  <clipPath id="ir120c"><ellipse cx="184" cy="162" rx="18" ry="19.8"/></clipPath></defs>
  <ellipse cx="184" cy="162" rx="18" ry="19.8" fill="#FFFDFB"/>
  <g clip-path="url(#ir120c)">
    <ellipse cx="184" cy="147.6" rx="18" ry="8.1" fill="#E6D8E4" opacity=".6"/>
    <circle cx="184" cy="164.16" r="12.959999999999999" fill="url(#ir120)"/>
    <circle cx="184" cy="165.16" r="6.84" fill="#120703"/>
    <circle cx="189.4" cy="158.04" r="3.96" fill="#fff"/>
    <circle cx="179.32" cy="169.56" r="1.8" fill="#fff" opacity=".85"/>
    
    <path d="M162.4 142.974 Q184 136.67399999999998 205.6 142.974 L205.6 133.2 L162.4 133.2Z" fill="#D69A6C"/>
  </g>
  <path d="M164.2 142.974 Q184 136.67399999999998 203.8 142.974" stroke="#241008" stroke-width="3.6" fill="none" stroke-linecap="round"/>
  
  <path d="M201.1 155.448 l6.84 -5.040000000000001" stroke="#241008" stroke-width="2.88" stroke-linecap="round"/>
    <path d="M94 134 q18 -10 34 -2" stroke="#1F110A" stroke-width="7.5" fill="none" stroke-linecap="round"/><path d="M206 134 q-18 -10 -34 -2" stroke="#1F110A" stroke-width="7.5" fill="none" stroke-linecap="round"/>
    
    <path d="M144 184 q6 10 12 0" stroke="#A96C43" stroke-width="4" fill="none" stroke-linecap="round"/><ellipse cx="148" cy="178" rx="3" ry="4" fill="#fff" opacity=".35"/>
    <ellipse cx="102" cy="196" rx="17" ry="10" fill="#FF8FA3" opacity="0.35" filter="url(#b115)"/><ellipse cx="198" cy="196" rx="17" ry="10" fill="#FF8FA3" opacity="0.35" filter="url(#b115)"/>
    
    <path d="M130 208 q20 14 40 0" stroke="#9A3F46" stroke-width="5.5" fill="none" stroke-linecap="round"/><g fill="none" stroke="#6E4534" stroke-width="4.5"><rect x="94" y="140" width="48" height="44" rx="20"/><rect x="158" y="140" width="48" height="44" rx="20"/><path d="M142 158 q8 -6 16 0"/><path d="M94 156 l-10 -4 M206 156 l10 -4"/></g><path d="M102 150 l10 -6" stroke="#fff" stroke-opacity=".6" stroke-width="3" stroke-linecap="round"/><path d="M166 150 l10 -6" stroke="#fff" stroke-opacity=".6" stroke-width="3" stroke-linecap="round"/>
    
    <circle cx="82" cy="196" r="7" fill="none" stroke="#D9A953" stroke-width="3.2"/><circle cx="218" cy="196" r="7" fill="none" stroke="#D9A953" stroke-width="3.2"/>
  </g>
  </g>
  </g>
</svg>