<svg viewBox="0 0 300 300" xmlns="http://www.w3.org/2000/svg">
  <defs>
    <radialGradient id="bg58" cx=".5" cy=".38" r=".7"><stop offset="0" stop-color="#FFF6D8"/><stop offset="1" stop-color="#FFD98C"/></radialGradient>
    <radialGradient id="f53" cx=".42" cy=".36" r=".72"><stop offset="0" stop-color="#FFE6D5"/><stop offset=".62" stop-color="#F6C6A8"/><stop offset="1" stop-color="#D69674"/></radialGradient>
    <linearGradient id="h54" x1="0" y1="0" x2="0" y2="1"><stop offset="0" stop-color="#A8704A"/><stop offset=".5" stop-color="#6B4028"/><stop offset="1" stop-color="#3F2317"/></linearGradient>
    <linearGradient id="c55" x1="0" y1="0" x2="0" y2="1"><stop offset="0" stop-color="#8FB39A"/><stop offset="1" stop-color="#5E8A6E"/></linearGradient>
    <linearGradient id="sh59" x1="0" y1="0" x2="0" y2="1"><stop offset="0" stop-color="#000" stop-opacity=".22"/><stop offset="1" stop-color="#000" stop-opacity="0"/></linearGradient>
    <filter id="b56"><feGaussianBlur stdDeviation="4"/></filter>
    <clipPath id="clip57"><circle cx="150" cy="150" r="150"/></clipPath>
  </defs>
  <g>
  <rect width="300" height="300" fill="url(#bg58)"/>
  <circle cx="150" cy="150" r="118" fill="#fff" opacity=".22"/>
  <g fill="#F2B84B"><path d="M244 78 l5 12 12 5 -12 5 -5 12 -5 -12 -12 -5 12 -5z"/><path d="M52 104 l3.5 8 8 3.5 -8 3.5 -3.5 8 -3.5 -8 -8 -3.5 8 -3.5z"/><path d="M256 150 l3 6 6 3 -6 3 -3 6 -3 -6 -6 -3 6 -3z" opacity=".7"/></g><path d="M50 60 c-6 -8 -18 -2 -12 8 l12 12 12 -12 c6 -10 -6 -16 -12 -8z" fill="#F08AA0" opacity=".85" transform="translate(4 -6) scale(.8) translate(10 10)"/>
  <g transform="translate(18 24) scale(.88)">
  <g transform="translate(0 0)">
    <path d="M26 330 C26 272 80 252 150 252 C220 252 274 272 274 330Z" fill="url(#c55)"/>
    <path d="M92 262 Q150 232 208 262 Q196 292 150 294 Q104 292 92 262Z" fill="#5E8A6E"/>
    <path d="M46 290 Q70 266 104 260" stroke="#fff" stroke-opacity=".25" stroke-width="6" fill="none" stroke-linecap="round"/>
    <path d="M134 280 v26 M166 280 v26" stroke="#FFFFFF" stroke-opacity=".8" stroke-width="4" stroke-linecap="round"/><circle cx="134" cy="308" r="4" fill="#fff"/><circle cx="166" cy="308" r="4" fill="#fff"/>
  </g>
  <g transform="translate(0 -3) rotate(-5 150 250)">
    <path d="M82 146 C70 76 116 50 152 52 C198 54 232 84 220 146 C206 112 180 98 150 98 C118 98 96 112 82 146Z" fill="url(#h54)"/>
    <path d="M128 216 h44 v48 q-22 12 -44 0z" fill="#D69674"/>
    <path d="M128 222 h44 v18 q-22 -4 -44 0z" fill="url(#sh59)"/>
    <ellipse cx="82" cy="168" rx="14" ry="20" fill="#F6C6A8"/><ellipse cx="218" cy="168" rx="14" ry="20" fill="#F6C6A8"/>
    <path d="M78 164 q4 -8 10 -2" stroke="#D69674" stroke-width="3" fill="none" stroke-linecap="round"/><path d="M222 164 q-4 -8 -10 -2" stroke="#D69674" stroke-width="3" fill="none" stroke-linecap="round"/>
    <path d="M84 148 C84 92 118 76 150 76 C182 76 216 92 216 148 C216 206 186 240 150 240 C114 240 84 206 84 148Z" fill="url(#f53)"/>
    <ellipse cx="118" cy="108" rx="24" ry="12" fill="#fff" opacity=".25" filter="url(#b56)"/>
    <path d="M84 132 C98 96 128 88 152 92 C178 88 206 98 218 132 C200 110 178 106 152 108 C140 108 128 110 120 116 C112 108 98 116 84 132Z" fill="url(#h54)"/><path d="M110 76 q36 -16 76 0" stroke="#fff" stroke-opacity=".25" stroke-width="5" fill="none" stroke-linecap="round"/>
    <path d="M99 168 Q116 148 133 168" stroke="#241008" stroke-width="6.5" fill="none" stroke-linecap="round"/><path d="M167 168 Q184 148 201 168" stroke="#241008" stroke-width="6.5" fill="none" stroke-linecap="round"/>
    <path d="M94 128 q18 -14 36 -4" stroke="#3F2317" stroke-width="7.5" fill="none" stroke-linecap="round"/><path d="M206 128 q-18 -14 -36 -4" stroke="#3F2317" stroke-width="7.5" fill="none" stroke-linecap="round"/>
    
    <path d="M144 184 q6 10 12 0" stroke="#D69674" stroke-width="4" fill="none" stroke-linecap="round"/><ellipse cx="148" cy="178" rx="3" ry="4" fill="#fff" opacity=".35"/>
    <ellipse cx="102" cy="196" rx="17" ry="10" fill="#FF8FA3" opacity="0.65" filter="url(#b56)"/><ellipse cx="198" cy="196" rx="17" ry="10" fill="#FF8FA3" opacity="0.65" filter="url(#b56)"/>
    
    <path d="M122 204 Q150 244 178 204 Q150 212 122 204Z" fill="#7A2E36"/><path d="M128 206 Q150 212 172 206 L170 212 Q150 216 130 212Z" fill="#fff"/><path d="M136 224 Q150 234 164 224 Q150 218 136 224Z" fill="#F0808F"/>
    
    
  </g>
  </g>
  </g>
</svg>