<svg viewBox="0 0 300 300" xmlns="http://www.w3.org/2000/svg">
  <defs>
    <radialGradient id="bg438" cx=".5" cy=".38" r=".7"><stop offset="0" stop-color="#EAF2FD"/><stop offset="1" stop-color="#B9CFEF"/></radialGradient>
    <radialGradient id="f433" cx=".42" cy=".36" r=".72"><stop offset="0" stop-color="#FFDCC2"/><stop offset=".62" stop-color="#EDB48D"/><stop offset="1" stop-color="#C4855E"/></radialGradient>
    <linearGradient id="h434" x1="0" y1="0" x2="0" y2="1"><stop offset="0" stop-color="#7A5038"/><stop offset=".5" stop-color="#3E2418"/><stop offset="1" stop-color="#1F110A"/></linearGradient>
    <linearGradient id="c435" x1="0" y1="0" x2="0" y2="1"><stop offset="0" stop-color="#EDE4FA"/><stop offset="1" stop-color="#C9B8E8"/></linearGradient>
    <linearGradient id="sh439" x1="0" y1="0" x2="0" y2="1"><stop offset="0" stop-color="#000" stop-opacity=".22"/><stop offset="1" stop-color="#000" stop-opacity="0"/></linearGradient>
    <filter id="b436"><feGaussianBlur stdDeviation="4"/></filter>
    <clipPath id="clip437"><circle cx="150" cy="150" r="150"/></clipPath>
  </defs>
  <g>
  <rect width="300" height="300" fill="url(#bg438)"/>
  <circle cx="150" cy="150" r="118" fill="#fff" opacity=".22"/>
  
  <g transform="translate(18 24) scale(.88)">
  <g transform="translate(0 3)">
    <path d="M26 330 C26 272 80 252 150 252 C220 252 274 272 274 330Z" fill="url(#c435)"/>
    <path d="M92 262 Q150 232 208 262 Q196 292 150 294 Q104 292 92 262Z" fill="#C9B8E8"/>
    <path d="M46 290 Q70 266 104 260" stroke="#fff" stroke-opacity=".25" stroke-width="6" fill="none" stroke-linecap="round"/>
    <path d="M134 280 v26 M166 280 v26" stroke="#FFFFFF" stroke-opacity=".8" stroke-width="4" stroke-linecap="round"/><circle cx="134" cy="308" r="4" fill="#fff"/><circle cx="166" cy="308" r="4" fill="#fff"/>
  </g>
  <g transform="translate(2 5) rotate(6 150 250)">
    <path d="M150 42 C92 42 62 92 64 160 C66 210 84 244 98 300 L202 300 C216 244 234 210 236 160 C238 92 208 42 150 42Z" fill="#9C86CC"/><path d="M150 42 C120 42 96 58 84 86" stroke="#fff" stroke-opacity=".3" stroke-width="7" fill="none" stroke-linecap="round"/>
    <path d="M128 216 h44 v48 q-22 12 -44 0z" fill="#C4855E"/>
    <path d="M128 222 h44 v18 q-22 -4 -44 0z" fill="url(#sh439)"/>
    <ellipse cx="82" cy="168" rx="14" ry="20" fill="#EDB48D"/><ellipse cx="218" cy="168" rx="14" ry="20" fill="#EDB48D"/>
    <path d="M78 164 q4 -8 10 -2" stroke="#C4855E" stroke-width="3" fill="none" stroke-linecap="round"/><path d="M222 164 q-4 -8 -10 -2" stroke="#C4855E" stroke-width="3" fill="none" stroke-linecap="round"/>
    <path d="M84 148 C84 92 118 76 150 76 C182 76 216 92 216 148 C216 206 186 240 150 240 C114 240 84 206 84 148Z" fill="url(#f433)"/>
    <ellipse cx="118" cy="108" rx="24" ry="12" fill="#fff" opacity=".25" filter="url(#b436)"/>
    <path d="M84 134 C88 92 116 74 150 74 C184 74 212 92 216 134 C200 104 178 96 150 96 C122 96 100 104 84 134Z" fill="#9C86CC"/><path d="M84 134 C88 92 116 74 150 74 C184 74 212 92 216 134" stroke="#000" stroke-opacity=".08" stroke-width="4" fill="none"/>
    <defs><radialGradient id="ir440" cx=".45" cy=".35" r=".65"><stop offset="0" stop-color="#C98A4E"/><stop offset=".55" stop-color="#6E3B1A"/><stop offset="1" stop-color="#2E1508"/></radialGradient>
  <clipPath id="ir440c"><ellipse cx="116" cy="162" rx="18" ry="19.8"/></clipPath></defs>
  <ellipse cx="116" cy="162" rx="18" ry="19.8" fill="#FFFDFB"/>
  <g clip-path="url(#ir440c)">
    <ellipse cx="116" cy="147.6" rx="18" ry="8.1" fill="#E6D8E4" opacity=".6"/>
    <circle cx="116" cy="167.16" r="12.959999999999999" fill="url(#ir440)"/>
    <circle cx="116" cy="168.16" r="6.84" fill="#120703"/>
    <circle cx="121.4" cy="161.04" r="5.3999999999999995" fill="#fff"/>
    <circle cx="111.32" cy="172.56" r="2.88" fill="#fff" opacity=".85"/>
    <path d="M98 176.04 Q116 171 134 176.04 L134 183.6 L98 183.6Z" fill="#A9CDF2" opacity=".75"/>
    <path d="M94.4 147.67499999999998 Q116 138.37499999999997 137.6 141.67499999999998 L137.6 133.2 L94.4 133.2Z" fill="#EDB48D"/>
  </g>
  <path d="M96.2 147.67499999999998 Q116 138.37499999999997 135.8 141.67499999999998" stroke="#241008" stroke-width="3.6" fill="none" stroke-linecap="round"/>
  
  <path d="M98.9 155.7 l-6.84 -5.040000000000001" stroke="#241008" stroke-width="2.88" stroke-linecap="round"/><defs><radialGradient id="ir441" cx=".45" cy=".35" r=".65"><stop offset="0" stop-color="#C98A4E"/><stop offset=".55" stop-color="#6E3B1A"/><stop offset="1" stop-color="#2E1508"/></radialGradient>
  <clipPath id="ir441c"><ellipse cx="184" cy="162" rx="18" ry="19.8"/></clipPath></defs>
  <ellipse cx="184" cy="162" rx="18" ry="19.8" fill="#FFFDFB"/>
  <g clip-path="url(#ir441c)">
    <ellipse cx="184" cy="147.6" rx="18" ry="8.1" fill="#E6D8E4" opacity=".6"/>
    <circle cx="184" cy="167.16" r="12.959999999999999" fill="url(#ir441)"/>
    <circle cx="184" cy="168.16" r="6.84" fill="#120703"/>
    <circle cx="189.4" cy="161.04" r="5.3999999999999995" fill="#fff"/>
    <circle cx="179.32" cy="172.56" r="2.88" fill="#fff" opacity=".85"/>
    <path d="M166 176.04 Q184 171 202 176.04 L202 183.6 L166 183.6Z" fill="#A9CDF2" opacity=".75"/>
    <path d="M162.4 141.67499999999998 Q184 138.37499999999997 205.6 147.67499999999998 L205.6 133.2 L162.4 133.2Z" fill="#EDB48D"/>
  </g>
  <path d="M164.2 141.67499999999998 Q184 138.37499999999997 203.8 147.67499999999998" stroke="#241008" stroke-width="3.6" fill="none" stroke-linecap="round"/>
  
  <path d="M201.1 155.7 l6.84 -5.040000000000001" stroke="#241008" stroke-width="2.88" stroke-linecap="round"/>
    <path d="M94 142 Q110 136 128 124" stroke="#1F110A" stroke-width="7.5" fill="none" stroke-linecap="round"/><path d="M206 142 Q190 136 172 124" stroke="#1F110A" stroke-width="7.5" fill="none" stroke-linecap="round"/>
    
    <path d="M144 184 q6 10 12 0" stroke="#C4855E" stroke-width="4" fill="none" stroke-linecap="round"/><ellipse cx="148" cy="178" rx="3" ry="4" fill="#fff" opacity=".35"/>
    <ellipse cx="102" cy="196" rx="17" ry="10" fill="#FF8FA3" opacity="0.25" filter="url(#b436)"/><ellipse cx="198" cy="196" rx="17" ry="10" fill="#FF8FA3" opacity="0.25" filter="url(#b436)"/>
    
    <path d="M130 220 Q150 204 170 220" stroke="#9A3F46" stroke-width="5.5" fill="none" stroke-linecap="round"/><path d="M140 222 q10 4 20 0" stroke="#9A3F46" stroke-opacity=".35" stroke-width="3" fill="none" stroke-linecap="round"/>
    <path d="M104 186 q-7 13 0 19 q7 -6 0 -19z" fill="#8EC0F0" stroke="#6FA6DE" stroke-width="1.2"/><path d="M103 192 q-2 4 0 6" stroke="#fff" stroke-width="1.6" fill="none" stroke-linecap="round"/>
    
  </g>
  </g>
  </g>
</svg>