<svg viewBox="0 0 300 300" xmlns="http://www.w3.org/2000/svg">
  <defs>
    <radialGradient id="bg422" cx=".5" cy=".38" r=".7"><stop offset="0" stop-color="#FFF6D8"/><stop offset="1" stop-color="#FFD98C"/></radialGradient>
    <radialGradient id="f417" cx=".42" cy=".36" r=".72"><stop offset="0" stop-color="#FFDCC2"/><stop offset=".62" stop-color="#EDB48D"/><stop offset="1" stop-color="#C4855E"/></radialGradient>
    <linearGradient id="h418" x1="0" y1="0" x2="0" y2="1"><stop offset="0" stop-color="#7A5038"/><stop offset=".5" stop-color="#3E2418"/><stop offset="1" stop-color="#1F110A"/></linearGradient>
    <linearGradient id="c419" x1="0" y1="0" x2="0" y2="1"><stop offset="0" stop-color="#EDE4FA"/><stop offset="1" stop-color="#C9B8E8"/></linearGradient>
    <linearGradient id="sh423" x1="0" y1="0" x2="0" y2="1"><stop offset="0" stop-color="#000" stop-opacity=".22"/><stop offset="1" stop-color="#000" stop-opacity="0"/></linearGradient>
    <filter id="b420"><feGaussianBlur stdDeviation="4"/></filter>
    <clipPath id="clip421"><circle cx="150" cy="150" r="150"/></clipPath>
  </defs>
  <g>
  <rect width="300" height="300" fill="url(#bg422)"/>
  <circle cx="150" cy="150" r="118" fill="#fff" opacity=".22"/>
  <g fill="#F2B84B"><path d="M244 78 l5 12 12 5 -12 5 -5 12 -5 -12 -12 -5 12 -5z"/><path d="M52 104 l3.5 8 8 3.5 -8 3.5 -3.5 8 -3.5 -8 -8 -3.5 8 -3.5z"/><path d="M256 150 l3 6 6 3 -6 3 -3 6 -3 -6 -6 -3 6 -3z" opacity=".7"/></g><path d="M50 60 c-6 -8 -18 -2 -12 8 l12 12 12 -12 c6 -10 -6 -16 -12 -8z" fill="#F08AA0" opacity=".85" transform="translate(4 -6) scale(.8) translate(10 10)"/>
  <g transform="translate(18 24) scale(.88)">
  <g transform="translate(0 0)">
    <path d="M26 330 C26 272 80 252 150 252 C220 252 274 272 274 330Z" fill="url(#c419)"/>
    <path d="M92 262 Q150 232 208 262 Q196 292 150 294 Q104 292 92 262Z" fill="#C9B8E8"/>
    <path d="M46 290 Q70 266 104 260" stroke="#fff" stroke-opacity=".25" stroke-width="6" fill="none" stroke-linecap="round"/>
    <path d="M134 280 v26 M166 280 v26" stroke="#FFFFFF" stroke-opacity=".8" stroke-width="4" stroke-linecap="round"/><circle cx="134" cy="308" r="4" fill="#fff"/><circle cx="166" cy="308" r="4" fill="#fff"/>
  </g>
  <g transform="translate(0 -3) rotate(-5 150 250)">
    <path d="M150 42 C92 42 62 92 64 160 C66 210 84 244 98 300 L202 300 C216 244 234 210 236 160 C238 92 208 42 150 42Z" fill="#9C86CC"/><path d="M150 42 C120 42 96 58 84 86" stroke="#fff" stroke-opacity=".3" stroke-width="7" fill="none" stroke-linecap="round"/>
    <path d="M128 216 h44 v48 q-22 12 -44 0z" fill="#C4855E"/>
    <path d="M128 222 h44 v18 q-22 -4 -44 0z" fill="url(#sh423)"/>
    <ellipse cx="82" cy="168" rx="14" ry="20" fill="#EDB48D"/><ellipse cx="218" cy="168" rx="14" ry="20" fill="#EDB48D"/>
    <path d="M78 164 q4 -8 10 -2" stroke="#C4855E" stroke-width="3" fill="none" stroke-linecap="round"/><path d="M222 164 q-4 -8 -10 -2" stroke="#C4855E" stroke-width="3" fill="none" stroke-linecap="round"/>
    <path d="M84 148 C84 92 118 76 150 76 C182 76 216 92 216 148 C216 206 186 240 150 240 C114 240 84 206 84 148Z" fill="url(#f417)"/>
    <ellipse cx="118" cy="108" rx="24" ry="12" fill="#fff" opacity=".25" filter="url(#b420)"/>
    <path d="M84 134 C88 92 116 74 150 74 C184 74 212 92 216 134 C200 104 178 96 150 96 C122 96 100 104 84 134Z" fill="#9C86CC"/><path d="M84 134 C88 92 116 74 150 74 C184 74 212 92 216 134" stroke="#000" stroke-opacity=".08" stroke-width="4" fill="none"/>
    <path d="M99 168 Q116 148 133 168" stroke="#241008" stroke-width="6.5" fill="none" stroke-linecap="round"/><path d="M167 168 Q184 148 201 168" stroke="#241008" stroke-width="6.5" fill="none" stroke-linecap="round"/>
    <path d="M94 128 q18 -14 36 -4" stroke="#1F110A" stroke-width="7.5" fill="none" stroke-linecap="round"/><path d="M206 128 q-18 -14 -36 -4" stroke="#1F110A" stroke-width="7.5" fill="none" stroke-linecap="round"/>
    
    <path d="M144 184 q6 10 12 0" stroke="#C4855E" stroke-width="4" fill="none" stroke-linecap="round"/><ellipse cx="148" cy="178" rx="3" ry="4" fill="#fff" opacity=".35"/>
    <ellipse cx="102" cy="196" rx="17" ry="10" fill="#FF8FA3" opacity="0.65" filter="url(#b420)"/><ellipse cx="198" cy="196" rx="17" ry="10" fill="#FF8FA3" opacity="0.65" filter="url(#b420)"/>
    
    <path d="M122 204 Q150 244 178 204 Q150 212 122 204Z" fill="#7A2E36"/><path d="M128 206 Q150 212 172 206 L170 212 Q150 216 130 212Z" fill="#fff"/><path d="M136 224 Q150 234 164 224 Q150 218 136 224Z" fill="#F0808F"/>
    
    
  </g>
  </g>
  </g>
</svg>